<?xml version="1.0" standalone="no"?>
<!DOCTYPE svg PUBLIC "-//W3C//DTD SVG 20010904//EN"
 "http://www.w3.org/TR/2001/REC-SVG-20010904/DTD/svg10.dtd">
<svg version="1.0" xmlns="http://www.w3.org/2000/svg"
 width="215.000000pt" height="215.000000pt" viewBox="0 0 215.000000 215.000000"
 preserveAspectRatio="xMidYMid meet">
<metadata>
Created by potrace 1.11, written by Peter Selinger 2001-2013
</metadata>
<g transform="translate(0.000000,215.000000) scale(0.100000,-0.100000)"
fill="#000000" stroke="none">
<path d="M972 2139 c-423 -61 -688 -500 -532 -880 34 -82 110 -213 235 -404
135 -207 148 -229 213 -360 57 -113 131 -308 147 -385 18 -89 26 -110 44 -110
14 0 20 14 30 66 27 147 138 418 242 590 23 38 84 134 136 213 232 353 288
502 263 696 -38 302 -279 535 -591 574 -93 12 -98 12 -187 0z m234 -204 c160
-37 308 -183 350 -345 59 -227 -61 -466 -284 -562 -72 -30 -85 -33 -187 -33
-103 0 -115 3 -189 34 -109 47 -201 137 -253 247 -37 77 -38 82 -38 194 0 111
1 118 36 190 105 221 330 331 565 275z"/>
<path d="M730 1755 c0 -9 9 -15 23 -15 13 0 32 -6 42 -14 22 -16 22 -17 5
-256 -16 -226 -24 -249 -78 -250 -17 0 -23 -5 -20 -17 3 -16 18 -18 111 -21
102 -3 107 -2 107 18 0 15 -7 20 -27 20 -57 0 -58 5 -55 177 2 87 7 184 10
215 l7 57 34 -82 c19 -45 44 -104 56 -132 12 -27 41 -98 66 -157 24 -59 48
-106 53 -105 12 4 17 13 64 117 21 47 68 148 103 225 l64 140 6 -100 c10 -158
10 -301 -1 -329 -7 -20 -16 -26 -40 -26 -23 0 -30 -4 -30 -20 0 -19 7 -20 115
-20 108 0 115 1 115 20 0 15 -7 20 -24 20 -47 0 -52 18 -59 181 -12 266 -10
317 12 329 11 5 29 10 40 10 12 0 21 7 21 15 0 12 -15 15 -73 15 l-74 0 -73
-152 c-40 -84 -89 -186 -107 -226 -19 -40 -38 -70 -43 -67 -6 4 -10 10 -10 15
0 5 -40 96 -88 202 -49 106 -92 201 -95 211 -5 14 -19 17 -82 17 -60 0 -75 -3
-75 -15z"/>
</g>
</svg>
